# xmcd
#
# Track frame offsets:
#	150
#	27014
#	45201
#	58753
#	74476
#	92614
#	112464
#	131871
#
# Disc length: 1974 seconds
#
# Revision: 1
# Processed by: cddbd v1.5.1PL2 Copyright (c) Steve Scherf et al.
# Submitted via: audiograbber 1.83.01
#
DISCID=7007b408
DTITLE=Little Walter and Otis Rush - Live At The Chicago Blues Festival
DYEAR=1997
DGENRE=Blues
TTITLE0=Otis Rush - It's Hard For Me To Believe Baby
TTITLE1=Otis Rush - It May Be The Last Time
TTITLE2=Otis Rush - I Feel Good
TTITLE3=Little Walter - Walter's Blues
TTITLE4=Otis Rush - Otis's Blues
TTITLE5=Little Walter - Goin' Down Slow
TTITLE6=Little Walter - Lovin' You All The Time
TTITLE7=Little Walter - Blue Mood
EXTD=
EXTT0=
EXTT1=
EXTT2=
EXTT3=
EXTT4=
EXTT5=
EXTT6=
EXTT7=
PLAYORDER=
